<?xml version="1.0" standalone="no"?>
<!DOCTYPE svg PUBLIC "-//W3C//DTD SVG 20010904//EN"
 "http://www.w3.org/TR/2001/REC-SVG-20010904/DTD/svg10.dtd">
<svg version="1.0" xmlns="http://www.w3.org/2000/svg"
 width="225.000000pt" height="225.000000pt" viewBox="0 0 225.000000 225.000000"
 preserveAspectRatio="xMidYMid meet">

<g transform="translate(0.000000,225.000000) scale(0.100000,-0.100000)"
fill="#000000" stroke="none">
<path d="M1069 1933 c-104 -82 -170 -196 -196 -336 -15 -82 -14 -90 6 -187 15
-74 18 -107 10 -121 -5 -10 -11 -19 -12 -19 -1 0 -38 -13 -82 -28 -104 -36
-209 -98 -286 -170 -39 -35 -95 -73 -153 -102 -89 -44 -92 -46 -124 -109 -45
-89 -40 -155 14 -202 43 -36 55 -28 20 13 -36 42 -45 71 -26 83 6 4 22 29 35
56 l25 49 68 2 c101 3 133 0 178 -17 32 -12 48 -13 69 -5 23 9 32 8 44 -5 14
-14 13 -17 -7 -38 -18 -17 -34 -22 -77 -22 -73 0 -70 -21 10 -85 42 -33 55
-28 55 20 0 14 8 37 18 50 9 14 22 41 27 60 7 22 20 40 38 48 15 7 27 19 27
26 0 17 33 46 52 46 8 0 25 11 38 25 17 18 34 25 61 25 20 0 42 7 49 15 7 8
27 15 44 15 17 0 40 7 50 15 32 24 166 20 199 -5 18 -14 34 -18 55 -14 23 5
35 1 53 -19 13 -13 36 -27 50 -31 14 -3 31 -17 37 -31 7 -15 20 -25 33 -25 23
0 79 -51 79 -73 0 -7 11 -19 25 -25 14 -6 25 -16 25 -22 0 -16 27 -12 73 12
30 15 70 23 142 29 54 3 105 4 112 2 8 -3 31 -30 53 -60 42 -59 42 -67 2 -120
-25 -33 -17 -42 20 -22 23 12 48 66 48 103 0 14 -10 51 -21 83 -28 75 -82 127
-180 175 -42 20 -112 67 -155 104 -100 84 -133 106 -214 134 -109 39 -115 52
-79 155 27 76 22 201 -10 287 -28 72 -106 191 -159 242 -56 53 -112 60 -163
19z"/>
<path d="M1120 1021 c-25 -3 -57 -14 -72 -25 -17 -11 -37 -16 -50 -13 -13 3
-32 -1 -43 -9 -12 -9 -30 -12 -51 -8 -27 5 -34 2 -45 -18 -15 -29 -28 -38 -55
-38 -14 0 -24 -8 -28 -23 -3 -13 -19 -29 -38 -38 -24 -10 -34 -22 -36 -40 -2
-15 -12 -35 -23 -45 -10 -9 -19 -30 -19 -46 0 -16 -5 -38 -10 -49 -20 -36 2
-44 22 -8 11 19 16 25 12 14 -10 -27 -12 -96 -2 -116 4 -9 3 -29 -2 -45 l-10
-29 4 29 c5 36 -2 56 -18 56 -24 0 -12 -83 19 -130 17 -25 34 -47 38 -49 5 -2
20 -16 35 -32 14 -16 33 -29 43 -29 10 0 21 -4 24 -10 3 -5 20 -10 36 -10 18
0 38 -8 47 -19 17 -19 165 -53 222 -51 110 3 187 13 202 27 10 9 28 13 43 11
24 -5 91 32 80 44 -3 2 2 5 10 5 8 0 12 -4 9 -8 -12 -21 18 -16 40 6 14 14 30
25 36 25 5 0 10 8 10 19 0 10 6 24 14 30 7 6 16 25 20 41 3 17 15 44 28 60 12
16 19 33 15 36 -11 11 -67 -57 -67 -81 0 -12 -6 -28 -14 -34 -8 -7 -17 -23
-20 -36 -4 -14 -10 -25 -15 -25 -11 0 15 57 30 65 5 4 9 16 9 28 0 12 7 30 15
41 11 14 11 22 2 37 -9 15 -7 23 13 44 14 15 25 36 26 48 2 71 5 87 15 87 7 0
8 -16 3 -46 l-7 -46 26 17 c28 18 50 48 61 83 7 20 5 21 -16 13 -34 -13 -81
-17 -96 -8 -6 5 -12 21 -12 37 0 15 -7 30 -15 33 -8 4 -23 24 -34 46 -15 28
-30 43 -56 51 -19 6 -43 22 -54 36 -10 13 -25 24 -34 24 -8 0 -26 9 -41 21
-20 16 -35 20 -60 15 -26 -5 -37 -2 -56 19 -24 25 -31 26 -110 16z m112 -41
c14 -16 22 -30 17 -30 -5 0 -16 11 -25 24 -8 14 -28 27 -42 29 l-27 4 25 2
c17 0 34 -9 52 -29z m-117 13 c-22 -3 -49 -12 -60 -21 -20 -17 -20 -17 -1 6
15 17 29 22 60 20 l41 -1 -40 -4z m-135 -38 c-14 -8 -39 -14 -55 -15 -17 0
-37 -6 -44 -12 -10 -11 -11 -10 -6 5 5 12 18 17 44 17 20 0 43 5 51 10 8 5 20
10 25 9 6 0 -1 -6 -15 -14z m235 -11 c20 -21 27 -24 45 -14 17 9 25 7 47 -9
14 -12 31 -21 38 -21 6 0 22 -11 34 -24 13 -13 34 -27 47 -30 13 -4 30 -19 38
-34 8 -16 22 -34 30 -41 9 -8 16 -24 16 -36 0 -12 7 -28 15 -35 8 -7 15 -17
15 -23 0 -6 -11 4 -25 23 -14 19 -23 40 -21 47 3 7 0 16 -7 20 -7 5 -20 20
-30 35 -10 16 -33 34 -51 42 -19 8 -38 21 -42 29 -5 8 -24 18 -43 22 -22 5
-31 4 -27 -3 3 -6 1 -12 -5 -14 -6 -2 18 -22 54 -45 36 -23 68 -51 72 -62 3
-10 13 -22 21 -25 8 -3 12 -11 9 -17 -4 -5 0 -18 8 -27 9 -10 16 -33 16 -52 2
-88 6 -109 19 -98 16 14 16 -6 0 -35 -6 -12 -12 -29 -13 -38 -1 -10 -9 -24
-18 -34 -9 -9 -17 -20 -17 -25 0 -4 -7 -11 -16 -14 -12 -4 -9 4 10 28 14 19
26 43 26 53 0 11 5 24 12 31 9 9 9 12 0 12 -7 0 -15 -8 -18 -17 -20 -63 -63
-113 -98 -113 -14 0 -28 -4 -31 -10 -3 -5 -16 -10 -29 -10 -12 0 -26 -4 -31
-9 -13 -12 -156 -16 -220 -6 -27 4 -61 14 -75 23 -14 9 -33 17 -43 17 -10 1
-31 11 -46 23 -24 18 -30 19 -35 7 -3 -8 -13 -15 -21 -15 -9 0 -13 -5 -10 -10
8 -12 71 -40 92 -40 8 0 26 -9 40 -20 17 -13 21 -20 11 -20 -9 0 -21 7 -28 15
-7 8 -21 15 -32 15 -61 0 -187 125 -174 173 3 11 1 28 -4 37 -12 23 12 155 33
178 8 9 17 26 19 37 2 11 15 26 30 33 15 7 30 21 33 32 4 12 15 20 30 20 13 0
29 10 39 25 10 16 25 24 43 24 63 1 104 9 120 24 10 8 36 17 58 20 22 2 46 4
53 5 7 1 24 -10 37 -24z m139 -13 c-3 -3 -15 6 -27 18 l-22 24 27 -19 c14 -10
24 -21 22 -23z m57 -28 l24 -28 -30 25 c-16 14 -32 26 -34 28 -2 1 0 2 6 2 5
0 20 -12 34 -27z m-576 -10 c-11 -3 -23 -10 -27 -17 -5 -7 -8 -7 -8 0 0 16 11
24 34 23 20 -1 20 -1 1 -6z m635 -23 c10 -5 33 -31 50 -57 22 -32 25 -42 11
-29 -11 10 -23 27 -27 38 -3 11 -20 28 -37 39 -33 19 -30 27 3 9z m-684 -25
c-11 -8 -25 -15 -30 -15 -6 1 0 7 14 15 32 19 40 18 16 0z m-77 -89 c-22 -20
-22 -20 -6 0 9 11 17 27 18 35 0 11 2 11 6 0 3 -7 -5 -23 -18 -35z m878 -79
c-4 -7 -6 -6 -6 4 -1 9 -8 22 -16 29 -8 7 -15 17 -15 23 0 5 9 -2 21 -17 11
-14 18 -32 16 -39z m-900 31 c-3 -8 -6 -5 -6 6 -1 11 2 17 5 13 3 -3 4 -12 1
-19z m801 -53 c-1 -25 -5 -39 -9 -32 -6 12 -1 77 7 77 2 0 3 -20 2 -45z m57
-90 l4 -30 -7 30 c-5 20 -10 26 -15 17 -9 -14 -27 -7 -27 11 0 7 4 6 10 -3 7
-11 10 -3 11 30 l1 45 10 -35 c5 -19 11 -48 13 -65z m39 55 c4 -25 3 -31 -4
-20 -5 8 -10 26 -10 39 0 32 6 24 14 -19z m-53 -107 c-5 -10 -19 -38 -31 -62
-27 -57 -73 -103 -95 -95 -9 4 -24 -1 -35 -11 -11 -10 -28 -15 -40 -12 -11 3
-27 -1 -34 -9 -23 -22 -31 -16 -10 7 12 13 26 18 40 15 13 -4 27 0 35 10 9 11
22 14 41 10 20 -4 28 -2 28 9 0 7 8 16 18 19 19 7 52 59 52 84 0 8 7 24 17 34
20 23 26 23 14 1z m-804 -87 c19 -38 12 -32 -23 19 -14 22 -19 33 -10 25 10
-7 24 -27 33 -44z m125 -82 c31 -4 55 -15 70 -31 16 -17 18 -22 6 -18 -9 4
-19 12 -21 19 -3 7 -27 16 -54 20 -38 5 -56 14 -79 39 l-29 32 30 -27 c20 -18
47 -30 77 -34z m192 0 c9 -3 14 -10 11 -14 -7 -12 62 -22 96 -15 16 4 29 11
29 16 0 5 12 9 26 9 14 0 23 -4 19 -10 -3 -6 4 -10 16 -10 12 0 19 -3 16 -7
-6 -5 -51 -10 -137 -13 -8 -1 -44 6 -80 14 -36 8 -55 14 -42 15 13 1 20 6 17
11 -7 11 6 13 29 4z m351 -34 c-10 -11 -22 -20 -28 -20 -5 0 1 9 14 20 31 25
37 25 14 0z m-55 -7 c-8 -3 -24 -13 -35 -22 -20 -16 -20 -16 -1 7 11 12 26 22
35 21 14 0 14 -1 1 -6z m-242 -35 c9 -8 23 -8 50 1 20 7 57 11 82 8 l45 -4
-52 -1 c-29 -1 -64 -7 -78 -14 -19 -8 -31 -8 -48 0 -12 6 -44 16 -72 21 l-50
10 55 -5 c30 -3 60 -10 68 -16z"/>
<path d="M1065 930 c-14 -15 -26 -19 -46 -15 -15 3 -30 1 -34 -4 -3 -6 -21
-11 -38 -11 -21 0 -36 -7 -45 -20 -7 -11 -19 -20 -28 -20 -9 0 -25 -11 -35
-24 -11 -14 -28 -28 -39 -31 -11 -4 -20 -15 -20 -25 0 -10 -7 -26 -17 -35 -9
-9 -18 -29 -19 -43 -1 -15 -7 -45 -13 -66 -6 -27 -6 -46 0 -58 6 -11 8 -32 4
-47 -4 -20 0 -32 15 -46 11 -10 20 -24 20 -30 0 -7 7 -16 16 -19 24 -9 26 -8
19 14 -5 16 -3 19 10 14 14 -6 12 1 -7 38 -13 25 -26 41 -30 35 -3 -6 -4 -17
0 -26 3 -9 1 -13 -3 -8 -10 9 -16 68 -14 142 0 20 3 25 8 16 13 -20 31 -4 31
28 0 16 7 34 15 41 8 7 15 21 15 31 0 10 9 21 20 24 11 3 25 15 30 26 6 10 19
19 30 19 11 0 24 9 30 20 7 14 21 20 43 20 22 0 28 3 18 9 -22 14 5 22 33 10
20 -9 29 -9 40 0 24 20 111 24 126 6 7 -8 20 -15 29 -15 14 0 14 2 1 10 -12 8
-13 10 -1 10 10 0 7 8 -9 25 -20 21 -33 25 -80 25 -45 0 -61 -4 -75 -20z"/>
<path d="M1260 920 c-13 -9 -13 -10 0 -10 13 0 13 -1 0 -10 -11 -7 -12 -10 -2
-10 17 0 43 26 35 34 -9 8 -15 7 -33 -4z"/>
<path d="M1126 893 c-16 -3 -39 -11 -50 -18 -12 -8 -30 -14 -41 -15 -52 -1
-79 -8 -90 -23 -7 -9 -17 -17 -22 -17 -13 0 -83 -63 -83 -75 0 -5 -7 -17 -16
-27 -12 -13 -17 -40 -19 -101 -1 -73 1 -88 22 -118 13 -18 23 -28 23 -21 0 7
7 12 15 12 19 0 19 10 -1 38 -21 30 -21 121 0 162 21 43 22 73 1 46 -12 -16
-15 -17 -15 -4 0 22 47 52 54 35 3 -8 11 -5 22 11 9 12 22 22 29 22 7 0 15 7
19 15 3 8 16 15 28 15 35 -1 61 5 85 18 30 16 83 15 103 -3 13 -12 20 -12 42
-1 22 12 26 12 22 1 -3 -7 5 -19 17 -26 13 -6 28 -16 33 -20 6 -5 23 -18 37
-29 15 -11 34 -36 44 -56 10 -21 20 -32 24 -26 4 7 11 4 19 -8 9 -16 9 -18 -2
-14 -18 7 -28 -33 -14 -56 24 -37 -54 -170 -100 -170 -11 0 -24 -5 -27 -10 -4
-6 -12 -10 -18 -9 -7 1 -19 0 -27 -4 -56 -21 -189 -12 -257 19 -17 8 -35 14
-40 14 -6 0 -18 9 -28 20 -18 20 -41 28 -30 10 3 -6 -1 -7 -9 -4 -9 3 -16 2
-16 -3 0 -16 33 -41 65 -49 17 -3 37 -13 45 -20 8 -7 40 -16 70 -20 30 -4 60
-11 67 -16 7 -6 19 -5 32 2 11 6 41 9 65 6 31 -3 49 1 57 10 7 8 19 14 28 12
9 -1 26 4 39 10 12 7 26 11 31 8 5 -3 14 1 21 9 7 8 9 15 4 15 -4 0 -3 5 4 12
7 7 12 20 12 30 0 10 5 18 10 18 6 0 11 10 11 23 1 18 2 19 6 3 3 -10 0 -23
-6 -29 -17 -17 -13 -31 4 -17 8 7 15 18 15 25 0 6 7 26 16 43 11 23 12 36 5
51 -6 11 -11 35 -11 55 0 19 -4 38 -10 41 -5 3 -10 15 -10 26 0 10 -4 19 -9
19 -5 0 -13 9 -16 20 -6 19 -133 110 -154 110 -5 0 -11 -5 -13 -11 -2 -7 -17
0 -35 15 -17 14 -35 25 -39 25 -5 -1 -22 -4 -38 -6z m208 -88 c9 -14 14 -25
12 -25 -8 0 -36 31 -36 41 0 15 7 10 24 -16z"/>
<path d="M1108 783 c-14 -2 -38 -16 -52 -30 -29 -28 -35 -73 -11 -73 8 0 15 9
15 19 0 28 38 51 81 51 43 0 79 -35 79 -76 0 -24 -1 -24 -116 -24 l-116 0 4
-66 c4 -61 7 -69 39 -99 62 -56 161 -54 221 5 25 26 28 35 28 94 0 52 -3 66
-15 66 -9 0 -15 9 -15 24 0 75 -59 120 -142 109z m53 -193 c6 -71 2 -85 -23
-88 -24 -3 -25 -1 -23 45 1 26 3 49 4 51 4 7 41 0 42 -8z"/>
<path d="M771 605 c0 -11 4 -27 9 -35 9 -13 10 -13 9 0 0 8 -4 24 -9 35 l-9
20 0 -20z"/>
<path d="M1395 450 c-3 -5 -1 -10 4 -10 6 0 11 5 11 10 0 6 -2 10 -4 10 -3 0
-8 -4 -11 -10z"/>
<path d="M506 640 c21 -36 118 -122 127 -113 14 14 -28 66 -84 104 l-62 42 19
-33z"/>
</g>
</svg>
